<?xml version="1.0" encoding="UTF-8"?>
<svg xmlns="http://www.w3.org/2000/svg" version="1.1" viewBox="0 0 1080 1080">
  <defs>
    <style>
      .cls-1 {
        fill: #ed1c24;
      }

      .cls-1, .cls-2, .cls-3, .cls-4, .cls-5, .cls-6 {
        stroke: #fff;
        stroke-miterlimit: 10;
      }

      .cls-2 {
        fill: #2e3192;
      }

      .cls-3, .cls-7 {
        fill: #fff;
      }

      .cls-4 {
        fill: #6d6e71;
      }

      .cls-5 {
        fill: #fff200;
      }

      .cls-6 {
        fill: #00a651;
      }
    </style>
  </defs>
  <!-- Generator: Adobe Illustrator 28.7.4, SVG Export Plug-In . SVG Version: 1.2.0 Build 166)  -->
  <g>
    <g id="Layer_1">
      <g>
        <g>
          <path class="cls-7" d="M245.19,554.88c8.95,0,14.02-1.26,15.23-3.77.52-1.08.78-2.5.78-4.26,0-2.12-.34-3.66-1.02-4.6-.68-.95-2.02-1.73-4-2.35-2.34-.72-6-1.08-10.98-1.08h-47.96v-15.97h48c13.77,0,23.18,3.58,28.22,10.74,2.51,3.61,3.76,8.02,3.76,13.23,0,7.91-2.79,13.89-8.37,17.94-5.58,4.05-13.45,6.08-23.61,6.08h-64.01v-15.97h63.97ZM213.24,586.86v15.97h-16.02v-15.97h16.02Z"/>
          <path class="cls-7" d="M347.72,570.01l21.88,32.81h-15.96l-21.44-31.98h-58.6v-15.97h64.01c8.95,0,14.03-1.26,15.23-3.77.52-1.08.78-2.5.78-4.26,0-2.12-.34-3.66-1.03-4.6-.68-.95-2.02-1.73-4-2.35-2.34-.72-6.01-1.08-10.99-1.08h-48v-15.97h48c13.77,0,23.18,3.58,28.22,10.74,2.51,3.61,3.76,8.02,3.76,13.23,0,8.63-3.34,14.97-10.01,19.04-3.29,1.99-7.24,3.37-11.87,4.15ZM305.63,586.86v15.97h-16.02v-15.97h16.02Z"/>
          <path class="cls-7" d="M415.64,522.84c12.08,0,21.76,3.65,29.05,10.94,7.29,7.29,10.94,16.98,10.94,29.05s-3.66,21.68-10.99,29-16.99,10.99-29,10.99-21.64-3.67-28.98-11.01c-7.34-7.34-11.01-17-11.01-28.98s3.66-21.68,10.99-29,16.99-10.99,29-10.99ZM415.61,538.81c-7.12,0-12.89,2.25-17.32,6.76-4.42,4.51-6.63,10.26-6.63,17.26,0,10.12,4.1,17.22,12.29,21.29,3.64,1.82,7.53,2.73,11.66,2.73,9.24,0,16.11-3.65,20.63-10.94,2.24-3.61,3.37-7.98,3.37-13.09,0-7.58-2.47-13.57-7.41-17.97-4.55-4.04-10.08-6.05-16.58-6.05Z"/>
          <path class="cls-7" d="M522.72,522.84h48v79.98h-16.02v-64.01h-31.98v-15.97ZM586.68,522.84h16.02v15.97h-16.02v-15.97Z"/>
          <path class="cls-7" d="M615.79,586.86l-8.03,15.97h-15.99l31.98-64.01h-15.97v-15.97h23.97l20.01,39.99h-16l-4.02-8.03-8.04,16.09h32.09l7.99,15.97h-48Z"/>
          <path class="cls-7" d="M644.69,522.84h48v79.98h-16.02v-64.01h-31.98v-15.97ZM708.65,522.84h16.02v15.97h-16.02v-15.97Z"/>
          <path class="cls-7" d="M774.55,602.83h-16.04l-31.98-79.98h16.04l31.98,79.98ZM774.51,562.8l16.01-39.95h15.98l-23.97,60.01-8.02-20.06Z"/>
          <path class="cls-7" d="M821.11,586.86l-8.03,15.97h-15.99l31.98-64.01h-15.97v-15.97h23.97l20.01,39.99h-16l-4.02-8.03-8.04,16.09h32.09l7.99,15.97h-48Z"/>
        </g>
        <circle class="cls-3" cx="416.24" cy="562.42" r="14.71"/>
      </g>
      <g>
        <circle class="cls-1" cx="682.87" cy="465.67" r="9.95"/>
        <circle class="cls-5" cx="700.43" cy="478.93" r="9.95"/>
        <circle class="cls-6" cx="665.3" cy="478.93" r="9.95"/>
        <circle class="cls-2" cx="671.91" cy="499.83" r="9.95"/>
        <circle class="cls-4" cx="693.82" cy="499.83" r="9.95"/>
      </g>
    </g>
  </g>
</svg>